<mxfile host="drawio-plugin" modified="2021-10-21T16:50:34.958Z" agent="5.0 (X11; Linux x86_64) AppleWebKit/537.36 (KHTML, like Gecko) Chrome/87.0.4280.141 Safari/537.36" version="14.7.4" etag="3X65zOs9IQIzFQmtNmHB" type="embed"><diagram id="74PbdGz2UCag46kpLz8n" name="design"><mxGraphModel dx="1378" dy="720" grid="1" gridSize="10" guides="1" tooltips="1" connect="1" arrows="1" fold="1" page="1" pageScale="1" pageWidth="850" pageHeight="1100" math="0" shadow="0"><root><mxCell id="0"/><mxCell id="1" parent="0"/></root></mxGraphModel></diagram></mxfile>